<?xml version="1.0" standalone="no"?>
<!DOCTYPE svg PUBLIC "-//W3C//DTD SVG 20010904//EN"
 "http://www.w3.org/TR/2001/REC-SVG-20010904/DTD/svg10.dtd">
<svg version="1.0" xmlns="http://www.w3.org/2000/svg"
 width="700.000000pt" height="700.000000pt" viewBox="0 0 700.000000 700.000000"
 preserveAspectRatio="xMidYMid meet">
<metadata>
Created by potrace 1.11, written by Peter Selinger 2001-2013
</metadata>
<g transform="translate(0.000000,700.000000) scale(0.100000,-0.100000)"
fill="#000000" stroke="none">
<path d="M2688 6980 c-151 -31 -248 -72 -373 -155 -249 -166 -412 -432 -449
-735 -3 -19 -5 -847 -5 -1840 l-1 -1805 -38 -40 c-148 -157 -267 -379 -328
-607 -9 -35 -18 -74 -20 -88 -2 -14 -8 -50 -13 -80 -10 -56 -8 -355 3 -400 4
-14 9 -38 12 -55 72 -405 354 -791 728 -999 131 -73 341 -143 484 -163 111
-15 370 -9 467 11 443 92 815 379 1015 785 70 141 107 258 136 426 20 117 12
393 -15 509 -55 239 -172 469 -326 644 l-55 63 0 1808 c0 1985 3 1889 -60
2064 -123 340 -420 593 -773 660 -107 20 -284 19 -389 -3z"/>
<path d="M4322 5550 l3 -205 405 0 405 0 0 205 0 205 -408 0 -407 1 2 -206z"/>
<path d="M4320 4733 c0 -112 3 -203 8 -204 4 -1 280 -2 615 -3 l607 -1 0 205
0 205 -615 0 -615 0 0 -202z"/>
<path d="M4324 4111 c-2 -2 -4 -95 -4 -205 l0 -201 408 0 407 0 0 205 0 205
-403 0 c-222 0 -405 -2 -408 -4z"/>
<path d="M4324 3285 c-3 -6 -3 -98 -2 -205 l3 -195 613 0 612 0 -2 205 -3 205
-609 0 c-410 0 -610 -3 -612 -10z"/>
</g>
</svg>
